<svg width="325" height="87" viewBox="0 0 325 87" fill="none" xmlns="http://www.w3.org/2000/svg">
<g clip-path="url(#clip0)">
<path d="M0.595992 73.5886C1.68876 72.024 2.65736 70.211 3.72529 68.6215C4.81806 67.0568 6.50689 66.5601 7.82318 67.6529C8.54342 68.2489 17.8568 75.9977 27.1454 75.9977C35.4902 75.9977 40.805 70.9312 40.805 64.7471C40.805 57.495 34.5216 52.9004 22.5508 47.958C10.2571 42.7673 0.595992 36.3597 0.595992 22.3523C0.595992 12.9395 7.84802 0 27.046 0C39.1162 0 48.1812 6.28347 49.3981 7.12789C50.3667 7.72395 51.3353 9.41279 50.1184 11.2258C49.1498 12.6663 48.057 14.3551 47.0884 15.8204C46.1198 17.3851 44.5552 18.1053 42.8664 17.0374C42.0219 16.5655 33.553 11.0023 26.5493 11.0023C16.3915 11.0023 12.8897 17.4099 12.8897 21.8804C12.8897 28.7599 18.2045 33.0069 28.2381 37.1048C42.2455 42.7922 54.2163 49.4234 54.2163 64.1758C54.2163 76.7428 42.9657 87 27.2695 87C12.5171 87 3.22858 79.2761 1.29139 77.463C0.223456 76.4944 -0.620957 75.6252 0.595992 73.5886Z" fill="#F4F5F7"/>
<path d="M108.532 45.4744C109.302 45.4744 109.972 45.0274 110.295 44.332L119.385 23.9169H119.981L129.146 44.332C129.444 45.0274 130.139 45.4744 130.909 45.4744H139.552C140.943 45.4744 141.886 44.034 141.29 42.7673L122.515 1.3163C122.142 0.596061 121.049 0 120.453 0H119.236C118.64 0 117.547 0.596061 117.175 1.3163L98.2749 42.7425C97.7036 44.0091 98.6226 45.4496 100.013 45.4496H108.532V45.4744Z" fill="#2C7A7B"/>
<path d="M159.346 82.6537L147.748 57.0728H91.7679L80.0951 82.6537C79.3749 84.2184 80.3435 85.7831 82.1565 85.7831H89.7562C91.1967 85.7831 92.1653 84.8145 92.5378 83.97C94.9469 78.4068 97.505 72.9677 99.914 67.4293H139.428L146.928 83.97C147.425 85.0628 148.244 85.7831 149.71 85.7831H157.309C159.122 85.7831 160.091 84.2184 159.346 82.6537Z" fill="#F4F5F7"/>
<path d="M193.172 3.50186C193.172 2.2849 194.141 1.21696 195.457 1.21696H203.429C204.646 1.21696 205.714 2.30973 205.714 3.50186V74.5572H238.448C239.789 74.5572 240.732 75.65 240.732 76.8421V83.4981C240.732 84.7151 239.764 85.783 238.448 85.783H195.482C194.166 85.783 193.197 84.6903 193.197 83.4981V3.50186H193.172Z" fill="#F4F5F7"/>
<path d="M290.453 12.5669H270.759C269.442 12.5669 268.474 11.4742 268.474 10.282V3.50186C268.474 2.2849 269.442 1.21696 270.759 1.21696H322.715C324.031 1.21696 325 2.30973 325 3.50186V10.282C325 11.499 324.031 12.5669 322.715 12.5669H303.02V83.4981C303.02 84.7151 301.928 85.783 300.735 85.783H292.763C291.546 85.783 290.478 84.6903 290.478 83.4981V12.5669H290.453Z" fill="#F4F5F7"/>
</g>
<defs>
<clipPath id="clip0">
<rect width="325" height="87" fill="white"/>
</clipPath>
</defs>
</svg>
