<svg width="325" height="87" viewBox="0 0 325 87" fill="none" xmlns="http://www.w3.org/2000/svg">
<g clip-path="url(#clip0)">
<path d="M0.595992 73.5882C1.68876 72.0235 2.65736 70.2105 3.72529 68.621C4.81806 67.0564 6.50689 66.5597 7.82318 67.6525C8.54342 68.2485 17.8568 75.9972 27.1454 75.9972C35.4902 75.9972 40.805 70.9308 40.805 64.7467C40.805 57.4946 34.5216 52.9 22.5508 47.9577C10.2571 42.7671 0.595992 36.3595 0.595992 22.3521C0.595992 12.9394 7.84802 0 27.046 0C39.1162 0 48.1812 6.28343 49.3981 7.12785C50.3667 7.7239 51.3353 9.41273 50.1184 11.2257C49.1498 12.6662 48.057 14.355 47.0884 15.8203C46.1198 17.385 44.5552 18.1052 42.8664 17.0373C42.0219 16.5654 33.553 11.0022 26.5493 11.0022C16.3915 11.0022 12.8897 17.4098 12.8897 21.8803C12.8897 28.7597 18.2045 33.0066 28.2381 37.1045C42.2455 42.7919 54.2163 49.423 54.2163 64.1755C54.2163 76.7423 42.9657 86.9995 27.2695 86.9995C12.5171 86.9995 3.22858 79.2756 1.29139 77.4626C0.223456 76.494 -0.620957 75.6247 0.595992 73.5882Z" fill="#252F3F"/>
<path d="M108.532 45.4742C109.302 45.4742 109.972 45.0271 110.295 44.3317L119.385 23.9168H119.981L129.146 44.3317C129.444 45.0271 130.139 45.4742 130.909 45.4742H139.552C140.943 45.4742 141.886 44.0337 141.29 42.7671L122.515 1.31629C122.142 0.596057 121.049 0 120.453 0H119.236C118.64 0 117.547 0.596057 117.175 1.31629L98.2749 42.7422C97.7036 44.0089 98.6226 45.4493 100.013 45.4493H108.532V45.4742Z" fill="#2C7A7B"/>
<path d="M159.346 82.6532L147.748 57.0724H91.7679L80.0951 82.6532C79.3749 84.2178 80.3435 85.7825 82.1565 85.7825H89.7562C91.1967 85.7825 92.1653 84.8139 92.5378 83.9695C94.9469 78.4063 97.505 72.9673 99.914 67.4289H139.428L146.928 83.9695C147.425 85.0623 148.244 85.7825 149.71 85.7825H157.309C159.122 85.7825 160.091 84.2178 159.346 82.6532Z" fill="#252F3F"/>
<path d="M193.172 3.50183C193.172 2.28488 194.141 1.21695 195.457 1.21695H203.429C204.646 1.21695 205.714 2.30972 205.714 3.50183V74.5568H238.448C239.789 74.5568 240.732 75.6495 240.732 76.8416V83.4976C240.732 84.7146 239.764 85.7825 238.448 85.7825H195.482C194.166 85.7825 193.197 84.6897 193.197 83.4976V3.50183H193.172Z" fill="#252F3F"/>
<path d="M290.453 12.5669H270.759C269.442 12.5669 268.474 11.4741 268.474 10.282V3.50183C268.474 2.28488 269.442 1.21695 270.759 1.21695H322.715C324.031 1.21695 325 2.30972 325 3.50183V10.282C325 11.4989 324.031 12.5669 322.715 12.5669H303.02V83.4976C303.02 84.7146 301.928 85.7825 300.735 85.7825H292.763C291.546 85.7825 290.478 84.6897 290.478 83.4976V12.5669H290.453Z" fill="#252F3F"/>
</g>
<defs>
<clipPath id="clip0">
<rect width="325" height="86.9995" fill="white"/>
</clipPath>
</defs>
</svg>
